<?xml version="1.0" encoding="UTF-8"?><svg xmlns="http://www.w3.org/2000/svg" viewBox="0 0 670 503.9"><defs><style>.l{letter-spacing:.17em;}.m,.n{fill:#fff;}.o{fill:#ffebb8;}.p{fill:#abbd7f;}.q{letter-spacing:.18em;}.r{font-family:Futura-Medium, Futura;font-size:60px;font-weight:500;}.s{letter-spacing:.2em;}.t{letter-spacing:.2em;}.u{letter-spacing:.16em;}.v{letter-spacing:.18em;}.w{letter-spacing:.18em;}.n{stroke:#000;stroke-width:2.83px;}.x{letter-spacing:.19em;}.y{letter-spacing:.18em;}</style></defs><g id="a"><g id="b"><path id="c" class="m" d="m187.2,334.72c5.53-9.72,18.28-32.29,22.34-40.58l28.39-64.86c5.02-10.92,10.26-21.84,16.38-32.54h0l23.8-18.78h0l28.17-32.1c.52,2.37,6.77,6.99,6.77,6.99,20.66,4.74,34.88,13.42,46.42,26.62l5.42,5.38,1.25,11.4,29.23-3.22,1.31-.22,1.75-.87,42.8-22.71h2.62l32.75,11.14,10.48,29.04-8.52,26.64,4.58.87,12.01,11.79,2.18,2.84,3.16,32.35-8.03,14,15.13,13.48,7.21,19.87h0l-.22,2.4-16.92,28.17,15.61,35.37v1.53l-8.69,21.7-17.51,3.85-3.28,6.99-17.03,13.32-61.36,20.74-48.48-1.96-50.73.72-24.17-15.13-.44-.44-.44-.66v-.22l-23.58-63.11-127.67,15c-2.02-3.69-3.95-7.44-5.78-11.25l63.07-53.57Z"/><path class="m" d="m308.82,138.85l-9.4,2.6.69,1.66.52,1.6-25.99,29.61-23.44,18.5-.76.6-.48.84c-6.48,11.33-12.01,23-16.58,32.93l-.02.04-.02.04-28.34,64.76c-4.42,9.03-9.8,19.55-16.27,29.61,1.39,5.96,3.14,11.84,5.26,17.61.35.96.72,1.92,1.09,2.87l.46,1.16c.26.65.52,1.28.78,1.92l.07.18c.14.33.28.66.42.99.33.78.66,1.52.99,2.26l.5,1.11c.36.8.74,1.6,1.12,2.41l.56,1.16c.29.6.59,1.2.89,1.79.2.41.4.79.59,1.17.39.75.78,1.5,1.19,2.25l.65,1.19c.37.67.75,1.36,1.14,2.04.22.39.44.77.67,1.15.34.58.66,1.13.99,1.68l.06.09c.21.35.42.7.63,1.05.47.77.94,1.52,1.42,2.27.25.39.5.78.76,1.17.39.59.77,1.18,1.16,1.77.26.38.53.78.8,1.17.34.49.69,1,1.04,1.5l.22.31c.19.28.39.55.58.83.56.78,1.11,1.53,1.67,2.29.17.23.35.47.54.71l.33.43c.37.49.74.98,1.12,1.46.32.42.64.81.95,1.21.34.43.7.87,1.06,1.31l.24.29c.24.29.48.59.72.88.6.73,1.21,1.45,1.82,2.15.23.27.47.53.7.8l.32.36c.37.42.72.82,1.08,1.22.37.41.74.82,1.11,1.22.34.37.69.75,1.05,1.12l.23.25c.29.31.59.63.88.94.65.67,1.29,1.33,1.93,1.98.32.32.65.64.98.96l.25.24c.34.33.67.66,1,.98.42.41.85.82,1.29,1.22.31.29.61.57.91.85,1,.92,1.94,1.77,2.89,2.61l.47.42c.47.41.9.78,1.34,1.15l.15.13c.32.27.61.52.9.76.51.42,1,.83,1.5,1.24l.82.66c1.2.97,2.38,1.88,3.5,2.74l.18.14c.52.39,1.09.81,1.66,1.23l.78.57c.56.4,1.13.81,1.71,1.22l.61.42c1.93,1.34,3.92,2.66,5.92,3.91l.63.4c.65.41,1.3.8,1.96,1.2l.23.13c2.18,1.3,4.39,2.54,6.63,3.73l.47.25c3.06,1.61,6.21,3.13,9.37,4.51l.32.14c3.23,1.41,6.55,2.72,9.88,3.9l.26.09c3.28,1.16,6.73,2.24,10.18,3.18l.15.04c12.85,3.5,26.17,5.28,39.57,5.28,11.73,0,23.43-1.36,34.78-4.05l1.71-.4,23.64.96,50.63-17.12,12.13-9.49,3.76-8.02,14.96-3.29,4.88-12.2-12.53-28.39,2.42-5.23c2.16-4.67,4.09-9.47,5.73-14.26l.43-1.24,5.27-8.89-1.53-4.21.74-3.54c.67-3.23,1.23-6.49,1.69-9.76l-.66-1.83-.35-.97-.77-.68-9.85-8.78,4.89-8.53.65-1.13-.13-1.29-2.57-26.35-.11-1.16-.71-.93-1.78-2.31-.17-.22-.2-.2-9.44-9.27-.34-.33-2.31,2.29.12-.48,6.42-20.07.59-1.83-1.04-1.62-9.91-15.34,1.76-4.66.47-1.26c-8.19-11.74-18.09-22.32-29.46-31.39l-32.66,17.33-1.02.51-.43.07-24.08,2.66-.59-5.1,6.35-14.39c3.07-7.12,9.47-11.58,16.25-16.3,1.85-1.29,3.74-2.6,5.56-3.99l-3.75-1.97.94-2.17-86.54-7.97Z"/></g><g id="d"><g id="e"><path class="p" d="m551.44,287.47c0-57.81-22.51-112.16-63.39-153.04-40.88-40.88-95.23-63.39-153.04-63.39s-112.16,22.51-153.04,63.39-63.39,95.23-63.39,153.04v12.76h.38c3.06,53.01,25.15,102.43,63.01,140.29,40.88,40.88,95.23,63.39,153.04,63.39s112.16-22.51,153.04-63.39c37.86-37.86,59.95-87.27,63.01-140.29h.38v-12.76Zm-247.03-147.05c9.88-2.06,20.11-3.14,30.59-3.14,22.47,0,43.79,4.97,62.95,13.85-1.76,1.32-3.57,2.58-5.35,3.82-6.78,4.72-13.18,9.18-16.25,16.3l-6.35,14.39.59,5.1,24.08-2.66.43-.07,1.02-.51,32.59-17.29c11.26,9.02,21.2,19.63,29.48,31.48l-.43,1.13-1.76,4.66,9.91,15.34,1.04,1.62-.59,1.83-6.42,20.07-.12.48,2.31-2.29.34.33,9.44,9.27.2.2.17.22,1.78,2.31.71.93.11,1.16,2.57,26.35.13,1.29-.65,1.13-4.89,8.53,9.85,8.78.77.68.35.97.66,1.83c-.46,3.28-1.01,6.54-1.69,9.76l-.74,3.54,1.53,4.21-5.27,8.89-.43,1.24c-1.64,4.8-3.57,9.6-5.73,14.26l-2.42,5.23,12.53,28.39-4.88,12.2-14.96,3.29-3.76,8.02-12.13,9.49-50.63,17.12-23.64-.96-1.71.4c-11.34,2.69-23.05,4.05-34.78,4.05-13.41,0-26.72-1.78-39.57-5.28l-.15-.04c-3.45-.94-6.9-2.02-10.18-3.18l-.26-.09c-3.33-1.18-6.65-2.49-9.88-3.9l-.32-.14c-3.16-1.39-6.3-2.9-9.37-4.51l-.47-.25c-2.24-1.18-4.45-2.43-6.63-3.73l-.23-.13c-.65-.39-1.3-.79-1.96-1.2l-.63-.4c-1.99-1.25-3.98-2.56-5.92-3.91l-.61-.42c-.58-.41-1.15-.82-1.71-1.22l-.78-.57c-.57-.42-1.14-.84-1.66-1.23l-.18-.14c-1.13-.85-2.3-1.77-3.5-2.74l-.82-.66c-.5-.41-.99-.81-1.5-1.24-.29-.24-.58-.49-.9-.76l-.15-.13c-.44-.37-.87-.74-1.34-1.15l-.47-.42c-.95-.84-1.89-1.69-2.89-2.61-.3-.28-.6-.56-.91-.85-.43-.41-.86-.82-1.29-1.22-.33-.32-.67-.65-1-.98l-.25-.24c-.33-.32-.66-.65-.98-.96-.65-.65-1.28-1.3-1.93-1.98-.3-.31-.59-.62-.88-.94l-.23-.25c-.35-.38-.71-.76-1.05-1.12-.37-.4-.74-.81-1.11-1.22-.36-.4-.71-.8-1.08-1.22l-.32-.36c-.23-.26-.47-.53-.7-.8-.61-.71-1.22-1.43-1.82-2.15-.24-.29-.48-.58-.72-.88l-.24-.29c-.36-.44-.71-.88-1.06-1.31-.32-.4-.63-.79-.95-1.21-.38-.48-.75-.97-1.12-1.46l-.33-.43c-.18-.24-.36-.48-.54-.71-.56-.75-1.11-1.51-1.67-2.29-.2-.27-.39-.55-.58-.83l-.22-.31c-.35-.5-.7-1.01-1.04-1.5-.27-.4-.54-.79-.8-1.17-.39-.59-.78-1.18-1.16-1.77-.25-.39-.51-.78-.76-1.17-.48-.75-.95-1.5-1.42-2.27-.21-.35-.42-.7-.63-1.05l-.06-.09c-.33-.55-.66-1.11-.99-1.68-.22-.38-.44-.76-.67-1.15-.39-.68-.77-1.36-1.14-2.04l-.65-1.19c-.4-.75-.8-1.5-1.19-2.25-.2-.38-.39-.76-.59-1.17-.3-.59-.6-1.19-.89-1.79l-.56-1.16c-.38-.8-.76-1.61-1.12-2.41l-.5-1.11c-.33-.74-.65-1.48-.99-2.26-.14-.33-.28-.66-.42-.99l-.07-.18c-.26-.63-.52-1.27-.78-1.92l-.46-1.16c-.37-.95-.74-1.91-1.09-2.87-2.12-5.77-3.87-11.65-5.26-17.61,6.47-10.06,11.85-20.58,16.27-29.61l28.34-64.76.02-.04.02-.04c4.56-9.92,10.1-21.59,16.58-32.93l.48-.84.76-.6,23.44-18.5,29.76-33.9Z"/></g></g></g><g id="f"><path id="g" class="o" d="m313.04,152.86c20.66,4.74,34.88,13.42,46.42,26.62l5.42,5.38,6.9-15.63c5.56-12.9,19.83-17.98,28.5-26.62,12.74-10.97,21.54-26.28,21.54-43.22,0-28.84-18.81-52.96-43.97-58.98l-35.27-20.31-60.73,57.94-2.49,2.37,1.32,3.17,24.11,57.77,1.47,4.5,1.61,5.69,5.16,1.29Z"/></g><g id="h"><path d="m372.66,219.02l8.77-6.24h0s-8.77,6.24-8.77,6.24Zm-91.06,229.5l.44.44,25.11,15.72-23.37-17.91-18.12-65.07-8.08,2.84,23.58,63.11v.22l.44.66Zm-140.26-74.85c1.2,2.69,2.46,5.34,3.77,7.97l34.08-40.12-37.85,32.15Zm256.65-178.67l1.53-.66s28.82-12.88,43.02-19l31.01,13.1,3.06-8.08-32.75-11.14h-2.62l-42.8,22.71-1.75.87-1.31.22-29.23,3.22,29.45-.82,2.4-.44Zm26.42-177.31l-24.46,21.84,26.86-19-2.4-2.84ZM316.32,0l-3.28,1.53,16.6,29.92-13.32-31.45Zm-47.82,38.43l-1.97,3.06,22.93,12.01-20.96-15.07Zm-14.19,158.32c-6.11,10.7-11.36,21.62-16.38,32.54l-28.39,64.86c-5.24,10.7-10.7,21.18-17.25,31.23,7.42-9.17,14.19-18.56,20.53-28.39l34.94-60.05c5.68-9.83,12.01-19,18.56-28.17l19.43-24.46,20.53-38.43-28.17,32.1-23.8,18.78Zm87.01-93.84l3.54-11.01,1.93,13.48,6.28.68,8.36-19.59-7.66-.96-2.74,8.03-2.48-12.18-5.42-.66-5.16,13.45-2.95-15.1-6.06-.98-12.94,40.81,14.66-29.8,3.7,12.99,6.94.84Zm66.72,241.46l-1.53-8.73.87,8.73c.22,3.06.65,5.9,1.53,8.73l7.64,15.94,2.4-1.31-8.73-15.29c-.87-2.4-1.53-5.24-2.18-8.08Zm-31.44-110.71l6.55,19,8.08,9.17,1.97-1.97-7.42-6.77-1.09-1.31-8.08-18.12Zm131.02,77.74l-13.98-12.45,12.45,13.98,4.15,18.78-20.74,27.95,6.99,4.59,18.12-30.57.22-2.4-7.21-19.87Zm2.18,86.47l-9.39,17.69-34.5,8.95-27.3.66-3.49-1.31,3.71-3.93-10.7-8.08-6.55-18.34,1.96,20.31.66,1.31,5.24,6.77-15.07-5.46-20.31-16.38,6.99-12.67,20.31-11.36h2.84l68.57-14.19-69,10.92-21.62-3.06-14.63-.22-1.75-1.96,3.93-5.24.87-1.97v-.22l-1.31-11.79-.44-1.09-10.92-12.45,7.21,13.98-1.31,9.61-3.93,3.06-10.92-11.14,7.64-17.25,15.72-9.39,20.53,2.18h1.75l.44-.22,77.74-28.17,7.75-13.5-3.16-32.35-2.18-2.84-12.01-11.79,11.79,12.23,1.53,2.4,1.96,32.1-7.86,11.79-77.3,24.24-20.96-3.06-10.48-17.03-1.31-19.22-8.52.87,2.18,20.09.66,1.75,10.04,15.07-1.09.65-18.56-10.04,1.53-24.89,11.36-8.73-1.75-1.75,32.75-6.99,69.44-30.35,8.52-26.64-13.1,19.22-66.6,33.41-32.97,8.52-14.85-22.93-2.62-5.02,10.1-15.85c-.13-.13-.26-.25-.39-.38l-11.24,15.79v.87l.66,1.31-.87,17.25-26.64-19.87,17.47,36.47v15.29h8.73l-7.64,17.03-11.36,41.49-2.84,3.06-28.82,3.49-67.48-1.09-31.88-29.48,30.75,32.95,69.66,6.01,29.52-6.65,2.18-1.75,35.81,12.23v10.92l-26.64,9.61h36.03l-36.03,15.5h45.64l.87,35.59,10.7-16.16,15.94,9.61h17.03l23.8-4.8-13.32-2.84,20.31.22-6.55,5.46-56.99,24.89-56.77,2.62-20.53,2.4,30.79-.44,48.48,1.96,61.36-20.74,17.03-13.32,3.28-6.99,17.51-3.85,8.69-21.7v-1.53l-13.97-31.66,10.48,32.32Zm-142.76-171.11s0,0,0,0l5.62-7.74,8.77-6.24-15.29-16.52-1.25-11.4,6.9-15.63c5.56-12.9,19.83-17.98,28.5-26.62,12.74-10.97,21.54-26.28,21.54-43.22,0-33.37-25.18-60.42-56.24-60.42-27.79,0-41.79,14.85-41.79,14.85,9.04-6.21,19.99-9.85,31.79-9.85,31.06,0,56.24,22.05,56.24,55.42,0,16.94-8.8,29.25-21.54,40.22-9.28,6.93-17.94,11.72-23.5,24.62l-7.32,15.25c-11.54-13.21-25.76-21.88-46.42-26.62,4.48,3.15,24.02,12.22,40.02,31.02-9.06-6.65-19.83-11.45-33.35-14.55,4.48,3.15,24.02,12.21,40.02,31.02-9.06-6.65-19.83-11.45-33.35-14.55,4.48,3.15,24.02,12.22,40.02,31.02-9.06-6.65-19.83-11.45-33.36-14.56,3.9,2.74,19.17,9.95,33.6,24.13l6.01-8.45-5.62,8.83Zm5.62-7.74l27.51-12.01,10.26-8.3-5.9-6.11-7.64,9.17-15.47,11.01h0s-8.77,6.24-8.77,6.24Zm0-1.09l-6.01,8.45c.13.13.26.25.39.38l5.62-8.83Z"/></g><g id="i"><rect id="j" class="n" x="1.42" y="375.45" width="667.17" height="101.29"/><g id="k"><text class="r" transform="translate(92.05 451.02)"><tspan class="q" x="0" y="0">S</tspan><tspan class="w" x="45.77" y="0">O</tspan><tspan class="v" x="110.39" y="0">R</tspan><tspan class="s" x="157.27" y="0">E </tspan><tspan class="x" x="233.71" y="0">T</tspan><tspan class="y" x="273.79" y="0">H</tspan><tspan class="u" x="328.75" y="0">U</tspan><tspan class="l" x="382.51" y="0">M</tspan><tspan class="t" x="450.42" y="0">B</tspan></text></g></g></svg>